<svg xmlns="http://www.w3.org/2000/svg" width="512" height="512" viewBox="0 0 512 512" version="1.1">
	<path d="M 286.176 7.013 C 280.822 8.137, 272.102 12.073, 267.765 15.322 C 265.969 16.667, 263.511 18.068, 262.301 18.435 C 258.699 19.528, 258.565 22.495, 261.857 28.257 C 267.891 38.818, 270.214 48.067, 270.770 63.747 C 271.326 79.414, 270.188 89.234, 266.578 99.924 C 264.382 106.427, 264.319 106.497, 260.929 106.232 C 253.570 105.656, 241.046 101.752, 231.421 97.032 C 214.891 88.928, 201.901 75.208, 197.084 60.766 C 194.590 53.288, 191.531 48, 189.700 48 C 188.969 48, 187.589 49.462, 186.635 51.250 C 185.680 53.038, 183.586 56.750, 181.980 59.500 C 173.800 73.515, 174.109 100.966, 182.543 109.400 C 184.353 111.210, 184.338 111.308, 181.953 113.239 C 172.277 121.074, 148.287 129.096, 134.473 129.116 C 124.679 129.130, 119.452 127.467, 110.570 121.511 C 103.186 116.559, 101.538 116.126, 100.126 118.764 C 98.950 120.962, 100.819 125.692, 103.973 128.500 C 105.209 129.600, 108.134 133.425, 110.474 137 C 112.813 140.575, 116.589 145.487, 118.864 147.917 C 121.139 150.346, 122.888 152.405, 122.750 152.494 C 122.613 152.582, 120.967 153.266, 119.093 154.014 C 113.547 156.226, 101.961 164.210, 95.172 170.499 C 75.280 188.924, 56.212 225.249, 49.084 258.300 C 46.100 272.136, 44.956 288.438, 46.070 301.261 C 47.803 321.217, 54.967 349.601, 62.871 367.824 C 66.008 375.059, 66.711 377.738, 66.291 380.870 C 65.614 385.915, 67.470 396.598, 70.083 402.693 C 74.783 413.659, 84.377 420.970, 94.094 420.990 C 98.169 420.999, 99.357 421.575, 104.594 426.078 C 115.232 435.225, 115.064 434.148, 107.155 442.474 C 97.299 452.850, 95.010 460.258, 99.071 468.647 C 104.204 479.249, 115.138 480.087, 151.500 472.665 L 173.500 468.175 184.082 473.087 C 189.902 475.789, 195.400 478, 196.300 478 C 198.152 478, 224.116 483.720, 224.412 484.193 C 224.517 484.362, 225.401 487.121, 226.376 490.325 C 230.445 503.693, 242.447 508.900, 259.159 504.547 C 265.072 503.007, 290.440 493.153, 303 487.518 C 307.125 485.667, 314.775 483.164, 320 481.956 C 356.245 473.573, 386.153 456.949, 412.511 430.534 C 440.799 402.184, 456.737 372.527, 463.583 335.500 C 466.082 321.979, 466.610 291.400, 464.593 277 C 460.716 249.329, 451.692 225.039, 438.215 206 C 432.561 198.014, 422.107 186.992, 415.760 182.328 L 411.019 178.844 416.260 174.404 C 423.494 168.275, 430.279 159.874, 432.987 153.693 C 434.238 150.837, 435.718 147.508, 436.275 146.295 C 437.044 144.625, 436.885 143.474, 435.622 141.545 C 433.702 138.616, 433.238 138.496, 431.079 140.371 C 428.834 142.320, 418.848 145.849, 410.765 147.549 C 402.809 149.223, 383.877 149.464, 375.920 147.993 C 372.923 147.439, 368.238 146.138, 365.508 145.102 L 360.544 143.217 364.069 141.745 C 372.886 138.060, 381 121.383, 381 106.944 C 381 99.950, 379.068 92.837, 376.352 89.837 C 375.475 88.868, 374.995 87.454, 375.286 86.697 C 375.577 85.939, 375.448 84.725, 375 84 C 373.737 81.956, 369.367 84.197, 359.484 91.957 C 343.065 104.849, 324.425 112.525, 306.641 113.716 L 297.782 114.310 300.946 108.905 C 310.666 92.296, 317.701 69.369, 319.481 48.500 C 320.301 38.888, 318.799 26.760, 315.623 17.342 C 312.620 8.440, 309.965 6.730, 298.586 6.365 C 294.139 6.222, 288.554 6.514, 286.176 7.013 M 282 15.940 C 277.093 17.937, 270 21.915, 270 22.671 C 270 22.931, 271.098 25.024, 272.441 27.322 C 273.783 29.620, 275.916 35.100, 277.181 39.500 C 279.164 46.396, 279.475 49.709, 279.439 63.500 C 279.394 80.452, 277.524 91.505, 272.952 101.842 C 271.657 104.768, 271.151 107.412, 271.544 109.200 C 272.055 111.525, 271.748 112.145, 269.701 112.924 C 266.868 114.001, 258.058 122.904, 258.023 124.724 C 258.010 125.398, 259.321 126.632, 260.937 127.467 C 264.689 129.408, 265.474 130.724, 263.964 132.544 C 262.071 134.824, 257.224 134.315, 254.455 131.545 C 250.643 127.734, 251.075 122.751, 255.558 118.815 C 259.509 115.346, 258.911 114.042, 253.355 114.015 C 244.919 113.974, 225.509 105.356, 214.126 96.597 C 205.470 89.936, 196.742 79.939, 192.416 71.728 C 188.985 65.217, 188.544 64.748, 187.968 67 C 187.617 68.375, 187.925 71.525, 188.654 74 C 189.382 76.475, 189.986 79.400, 189.995 80.500 C 190.045 86.599, 192.365 90.649, 200.175 98.271 C 208.747 106.636, 209.420 108.553, 204.594 110.866 C 202.370 111.932, 200.911 112.001, 198.206 111.171 C 194.821 110.132, 194.488 110.277, 188.600 115.338 C 185.245 118.222, 180.841 121.801, 178.814 123.293 C 172.697 127.792, 159.350 133.990, 151.189 136.120 C 143.018 138.253, 126.734 139.109, 121.500 137.682 C 118.536 136.873, 118.553 136.918, 122.958 141.432 L 127.416 146 135.458 145.999 C 139.881 145.998, 147.228 146.518, 151.783 147.155 C 162.454 148.646, 173.196 147.364, 193.929 142.126 C 205.919 139.097, 209.965 138.440, 212.084 139.179 C 215.333 140.312, 217.498 144.878, 216.560 148.617 C 215.685 152.104, 211.666 157.306, 208.565 158.965 C 207.207 159.692, 204.387 163.217, 202.298 166.799 C 197.619 174.823, 186.944 186.418, 179.542 191.516 C 176.494 193.615, 174 195.542, 174 195.797 C 174 197.502, 182.500 194.296, 188.417 190.359 C 195.227 185.828, 195.867 185.617, 205 184.902 C 221.128 183.640, 227.736 180.459, 244 166.129 C 249.225 161.525, 256.543 155.718, 260.262 153.224 C 266.268 149.197, 267.303 148.817, 269.512 149.824 C 272.216 151.056, 272.658 153.461, 270.894 157.334 C 269.886 159.545, 270.222 160.153, 274.644 164.123 C 277.315 166.521, 283.354 172.199, 288.065 176.742 C 296.784 185.148, 298.534 185.965, 302.996 183.708 C 305.470 182.456, 305.492 182.327, 305.506 168.973 C 305.519 156.245, 305.676 155.182, 308.333 149.750 C 309.881 146.587, 311.579 144, 312.108 144 C 312.638 144, 314.180 144.727, 315.535 145.615 C 317.729 147.052, 318 147.932, 318 153.615 C 318 157.909, 318.392 160, 319.198 160 C 319.857 160, 323.509 162.088, 327.312 164.640 C 338.494 172.142, 346.106 174.353, 361 174.425 C 375.313 174.495, 384.063 172.511, 396.035 166.483 C 399.858 164.557, 405.352 162.481, 408.243 161.868 C 415.866 160.252, 423.436 156.103, 421.780 154.447 C 421.550 154.216, 417.792 154.754, 413.430 155.643 C 402.777 157.813, 382.644 157.829, 373.770 155.673 C 370.069 154.774, 364.127 152.717, 360.567 151.103 C 353.657 147.970, 343.979 139.782, 344.032 137.113 C 344.083 134.538, 346.459 132.083, 350.113 130.830 C 355.412 129.013, 357.892 127.044, 360.467 122.608 C 362.695 118.770, 365.320 110.400, 366.993 101.802 L 367.712 98.104 361.606 102.435 C 343.565 115.232, 321.546 121.970, 302.364 120.565 L 293.227 119.896 291.155 123.249 C 288.499 127.547, 280.954 132.971, 276.663 133.667 C 273.654 134.156, 273.202 133.901, 272.022 131.052 C 270.289 126.870, 271.511 122.953, 277.946 112.060 C 282.683 104.041, 296.013 73.374, 300.358 60.500 C 302.055 55.471, 302.359 52.182, 302.235 40.175 C 302.154 32.297, 301.838 25.065, 301.533 24.104 C 301.101 22.743, 301.807 22.153, 304.739 21.429 C 307.836 20.664, 308.500 20.059, 308.500 18 C 308.500 15.804, 307.953 15.418, 304 14.824 C 295.688 13.576, 286.689 14.032, 282 15.940 M 172.750 161.662 C 173.438 161.940, 174.563 161.940, 175.250 161.662 C 175.938 161.385, 175.375 161.158, 174 161.158 C 172.625 161.158, 172.063 161.385, 172.750 161.662 M 186.364 250.170 C 182.205 252.183, 180.760 258.785, 183.594 262.830 C 185.908 266.135, 192.511 265.561, 195.298 261.814 C 197.063 259.440, 197.146 258.767, 196.012 256.030 C 194.838 253.194, 190.589 248.905, 189.115 249.068 C 188.777 249.105, 187.539 249.601, 186.364 250.170 M 256.455 251.455 C 254.690 253.219, 254 255.002, 254 257.800 C 254 262.511, 256.361 265, 260.829 265 C 267.878 265, 270.398 257.244, 265.077 251.923 C 261.512 248.358, 259.652 248.257, 256.455 251.455 M 180 267 C 180 267.550, 180.477 268, 181.059 268 C 181.641 268, 181.840 267.550, 181.500 267 C 181.160 266.450, 180.684 266, 180.441 266 C 180.198 266, 180 266.450, 180 267 M 251 267 C 251 267.550, 251.450 268, 252 268 C 252.550 268, 253 267.550, 253 267 C 253 266.450, 252.550 266, 252 266 C 251.450 266, 251 266.450, 251 267 M 118.200 282.200 C 116.218 284.182, 116.708 288, 118.943 288 C 121.242 288, 124.076 284.362, 123.318 282.385 C 122.664 280.682, 119.821 280.579, 118.200 282.200 M 298.718 291.250 C 298.210 292.667, 299.763 296.151, 301.366 297.193 C 302.773 298.106, 305 296.197, 305 294.078 C 305 290.691, 299.764 288.334, 298.718 291.250 M 232.198 313.485 C 221.868 316.400, 210.549 321.719, 202.584 327.403 C 195.026 332.796, 182.179 346.188, 180.818 350.091 C 180.098 352.157, 179.143 353, 177.522 353 C 175.632 353, 174.413 351.327, 170.420 343.250 C 166.272 334.859, 164.189 332.071, 155.478 323.250 C 143.729 311.353, 141.952 310.755, 134.413 316.170 C 131.986 317.913, 130.017 319.600, 130.038 319.920 C 130.059 320.239, 132.533 322.206, 135.535 324.291 C 144.168 330.285, 155.559 345.259, 159.076 355.240 C 161.283 361.500, 166.644 365.861, 173.652 367.095 C 181.324 368.447, 187 366.570, 187 362.681 C 187 361.053, 188.474 358.988, 191.499 356.380 C 193.973 354.246, 198.918 349.907, 202.487 346.737 C 212.731 337.641, 228.041 328.470, 241.283 323.499 C 243.913 322.511, 246.272 321.369, 246.525 320.960 C 247.436 319.486, 243.582 310.999, 242.034 311.071 C 241.190 311.111, 236.764 312.197, 232.198 313.485 M 113.607 323.339 C 112.159 328.736, 112.743 329.660, 119.103 332.038 C 124.348 334, 132.851 338.865, 144.453 346.542 L 147.406 348.496 145.453 345.134 C 140.773 337.076, 130.762 328.878, 118.843 323.342 L 114.187 321.178 113.607 323.339 M 254 326.013 C 242.970 329.753, 221.357 339.690, 222.268 340.602 C 222.510 340.843, 227.205 339.951, 232.703 338.620 C 238.200 337.289, 248.504 335.392, 255.599 334.405 C 262.695 333.418, 268.659 332.502, 268.853 332.369 C 269.755 331.753, 267.679 322.007, 266.656 322.057 C 266.020 322.088, 260.325 323.868, 254 326.013 M 102.366 338.650 C 102.679 340.218, 103.426 344.425, 104.027 348 C 106.141 360.577, 106.696 361.808, 111.288 364.107 C 127.084 372.015, 130.919 387.532, 120.906 403.024 C 118.736 406.381, 117.173 409.471, 117.432 409.890 C 117.691 410.309, 118.646 415.343, 119.555 421.076 C 120.463 426.809, 121.402 431.823, 121.642 432.217 C 121.881 432.611, 124.197 431.632, 126.789 430.040 C 133.218 426.091, 139.672 424.652, 148.428 425.214 L 155.775 425.685 156.232 398.593 C 156.483 383.692, 156.993 370.811, 157.367 369.969 C 157.856 368.867, 156.055 366.907, 150.937 362.969 C 147.027 359.961, 141.872 355.925, 139.482 354 C 132.491 348.369, 124.468 343.895, 115.176 340.444 C 101.226 335.264, 101.704 335.331, 102.366 338.650 M 226.970 349.489 C 208.914 354.448, 197.681 360.826, 194.142 368.127 C 191.259 374.078, 179.050 377.596, 170.145 375.042 C 166.997 374.139, 166.836 374.212, 167.363 376.311 C 167.671 377.536, 168.642 383.030, 169.521 388.519 C 170.400 394.009, 172.919 407.275, 175.117 418 C 177.316 428.725, 178.899 438.924, 178.634 440.664 C 178.029 444.649, 180.370 446.972, 185.714 447.688 C 192.200 448.558, 192.277 447.922, 188.402 425.486 C 184.245 401.414, 183.232 388.371, 184.960 381.168 C 186.306 375.558, 187.390 374.249, 189.346 375.872 C 190.038 376.446, 191.540 376.671, 192.684 376.372 C 194.567 375.880, 194.877 376.479, 195.945 382.664 C 201.549 415.128, 207.680 441.773, 207.909 434.657 C 208.385 419.820, 225.639 367.059, 234.980 351.878 C 236.729 349.035, 237.464 347.031, 236.741 347.073 C 236.058 347.114, 231.662 348.201, 226.970 349.489 M 228 456.075 C 220.900 459.432, 215 463.529, 215 465.102 C 215 465.652, 216.587 464.891, 218.527 463.412 C 220.467 461.932, 225.304 458.996, 229.277 456.887 C 237.940 452.288, 237.116 451.764, 228 456.075" stroke="none" fill="black" fill-rule="evenodd"/>
</svg>